<svg width="226" height="88" viewBox="0 0 226 88" fill="none" xmlns="http://www.w3.org/2000/svg">
<g opacity="0.1">
<path d="M2.92186 28.1098C4.83173 28.4359 6.64372 27.1492 6.97129 25.2352L6.97163 25.2332L6.97494 25.2151C6.97944 25.1905 6.98756 25.1471 6.99961 25.0861C7.02371 24.964 7.06344 24.7719 7.12115 24.5198C7.23676 24.0149 7.42339 23.2744 7.69936 22.3777C8.25525 20.5715 9.15319 18.1986 10.5194 15.8576C13.2497 11.1793 17.5512 7.03994 24.5752 7.03994C31.8863 7.03994 37.5388 11.402 44.3276 16.8316L44.6895 17.1212C48.2394 19.962 52.141 23.0843 56.64 25.2811C60.1717 27.0056 64.0716 28.1597 68.4584 28.1597C72.8259 28.1597 76.7107 27.0157 80.2301 25.3039C84.7488 23.1059 88.6652 19.9718 92.2273 17.1212L92.5892 16.8316C99.378 11.402 105.031 7.03994 112.342 7.03994C119.653 7.03994 125.305 11.402 132.094 16.8316L132.456 17.1212C136.052 19.9988 140.009 23.1652 144.582 25.366C148.067 27.0434 151.91 28.1597 156.225 28.1597C160.52 28.1597 164.348 27.0533 167.822 25.3884C172.414 23.1868 176.386 20.0086 179.994 17.1211L180.356 16.8316C187.144 11.402 192.797 7.03994 200.108 7.03994C207.186 7.03994 211.836 11.2421 214.906 15.9933C216.433 18.3578 217.486 20.7494 218.158 22.5644C218.492 23.4662 218.726 24.211 218.874 24.7191C218.948 24.9728 219 25.1664 219.032 25.2898C219.048 25.3514 219.059 25.3955 219.065 25.4206L219.069 25.4379L219.07 25.4416L219.071 25.4432L219.071 25.4444C219.513 27.334 221.398 28.5083 223.285 28.0681C225.173 27.6273 226.347 25.7351 225.908 23.8417L222.489 24.6398C225.908 23.8417 225.907 23.8388 225.907 23.8388L225.906 23.8354L225.904 23.8272L225.899 23.805L225.883 23.7378C225.869 23.683 225.851 23.6084 225.827 23.5154C225.778 23.3294 225.708 23.0693 225.614 22.7455C225.425 22.0986 225.14 21.1934 224.741 20.1152C223.947 17.9702 222.682 15.0819 220.799 12.1664C217.047 6.35778 210.507 0 200.108 0C190.133 0 182.676 5.96772 176.339 11.0386L175.977 11.3281C169.189 16.7578 163.536 21.1198 156.225 21.1198C148.914 21.1198 143.261 16.7578 136.472 11.3281L136.111 11.0386C129.774 5.96772 122.317 0 112.342 0C102.366 0 94.9092 5.96771 88.5727 11.0386L88.2108 11.3281C81.4221 16.7578 75.7695 21.1198 68.4584 21.1198C61.1473 21.1198 55.4947 16.7578 48.706 11.3281L48.3441 11.0386C42.0076 5.96771 34.5504 0 24.5752 0C14.1223 0 7.89186 6.42052 4.45934 12.3022C2.74418 15.2411 1.65304 18.1482 0.990205 20.3019C0.656804 21.3852 0.42666 22.2947 0.27783 22.9447C0.203319 23.2702 0.148911 23.5318 0.111939 23.7191C0.0934462 23.8127 0.0792928 23.8879 0.0691492 23.9433L0.0568918 24.0114L0.0529361 24.034L0.0514879 24.0424L0.0508943 24.0459C0.0508943 24.0459 0.0503871 24.0489 3.51122 24.6398L0.050387 24.0489C-0.27511 25.9653 1.01049 27.7834 2.92186 28.1098Z" fill="url(#paint0_linear_80_8)"/>
<path d="M6.97128 55.155C6.64372 57.0689 4.83173 58.3556 2.92186 58.0295C1.01049 57.7032 -0.27511 55.885 0.050387 53.9686L3.51122 54.5595C0.0503871 53.9686 0.0508943 53.9656 0.0508943 53.9656L0.0514879 53.9621L0.0529361 53.9537L0.0568918 53.9311L0.0691492 53.863C0.0792928 53.8077 0.0934462 53.7325 0.111939 53.6388C0.148911 53.4515 0.203319 53.1899 0.27783 52.8645C0.42666 52.2144 0.656804 51.3049 0.990205 50.2216C1.65304 48.0679 2.74418 45.1608 4.45934 42.2219C7.89186 36.3403 14.1223 29.9197 24.5752 29.9197C34.5504 29.9197 42.0076 35.8874 48.3441 40.9583L48.706 41.2479C55.4947 46.6775 61.1473 51.0395 68.4584 51.0395C75.7695 51.0395 81.4221 46.6775 88.2108 41.2479L88.5727 40.9583C94.9092 35.8874 102.366 29.9197 112.342 29.9197C122.317 29.9197 129.774 35.8875 136.111 40.9583L136.472 41.2479C143.261 46.6775 148.914 51.0395 156.225 51.0395C163.536 51.0395 169.189 46.6775 175.977 41.2479L176.339 40.9583C182.676 35.8875 190.133 29.9197 200.108 29.9197C210.507 29.9197 217.047 36.2775 220.799 42.0862C222.682 45.0016 223.947 47.89 224.741 50.035C225.14 51.1131 225.425 52.0183 225.614 52.6652C225.708 52.989 225.778 53.2492 225.827 53.4351C225.851 53.5282 225.869 53.6027 225.883 53.6575L225.899 53.7247L225.904 53.747L225.906 53.7552L225.907 53.7585C225.907 53.7585 225.908 53.7614 222.489 54.5595L225.908 53.7614C226.347 55.6548 225.173 57.547 223.285 57.9878C221.398 58.4281 219.513 57.2537 219.071 55.3642L219.071 55.3629L219.07 55.3613L219.069 55.3576L219.065 55.3403C219.059 55.3152 219.048 55.2712 219.032 55.2095C219 55.0861 218.948 54.8925 218.874 54.6388C218.726 54.1307 218.492 53.3859 218.158 52.4841C217.486 50.6692 216.433 48.2776 214.906 45.9131C211.836 41.1618 207.186 36.9597 200.108 36.9597C192.797 36.9597 187.144 41.3217 180.356 46.7513L179.994 47.0409C176.386 49.9283 172.414 53.1065 167.822 55.3081C164.348 56.973 160.52 58.0795 156.225 58.0795C151.91 58.0795 148.067 56.9631 144.582 55.2857C140.009 53.085 136.052 49.9185 132.456 47.0409L132.094 46.7513C125.305 41.3217 119.653 36.9597 112.342 36.9597C105.031 36.9597 99.378 41.3217 92.5892 46.7513L92.2273 47.0409C88.6652 49.8916 84.7488 53.0257 80.2301 55.2236C76.7107 56.9355 72.8259 58.0795 68.4584 58.0795C64.0716 58.0795 60.1717 56.9253 56.64 55.2009C52.141 53.0041 48.2394 49.8817 44.6895 47.0409L44.3276 46.7513C37.5388 41.3217 31.8863 36.9597 24.5752 36.9597C17.5512 36.9597 13.2497 41.0991 10.5194 45.7773C9.15319 48.1183 8.25525 50.4912 7.69936 52.2974C7.42339 53.1941 7.23676 53.9346 7.12115 54.4396C7.06344 54.6916 7.02371 54.8837 6.99961 55.0058C6.98756 55.0669 6.97944 55.1103 6.97494 55.1348L6.97163 55.1529L6.97128 55.155Z" fill="url(#paint1_linear_80_8)"/>
<path d="M6.97148 85.0736C6.64441 86.9881 4.83209 88.2754 2.92186 87.9493C1.01049 87.6229 -0.27511 85.8047 0.050387 83.8883L3.51122 84.4792C0.0503871 83.8883 0.0508943 83.8853 0.0508943 83.8853L0.0514879 83.8819L0.0529361 83.8735L0.0568918 83.8508L0.0691492 83.7828C0.0792928 83.7274 0.0934462 83.6522 0.111939 83.5585C0.148911 83.3713 0.203319 83.1096 0.27783 82.7842C0.42666 82.1341 0.656804 81.2247 0.990205 80.1414C1.65304 77.9876 2.74418 75.0805 4.45934 72.1416C7.89186 66.26 14.1223 59.8395 24.5752 59.8395C34.5504 59.8395 42.0076 65.8072 48.3441 70.8781L48.706 71.1676C55.4947 76.5972 61.1473 80.9593 68.4584 80.9593C75.7695 80.9593 81.4221 76.5972 88.2108 71.1676L88.5727 70.8781C94.9092 65.8072 102.366 59.8395 112.342 59.8395C122.317 59.8395 129.774 65.8072 136.111 70.8781L136.472 71.1676C143.261 76.5972 148.914 80.9593 156.225 80.9593C163.536 80.9593 169.189 76.5972 175.977 71.1676L176.339 70.8781C182.676 65.8072 190.133 59.8395 200.108 59.8395C210.507 59.8395 217.047 66.1972 220.799 72.0059C222.682 74.9213 223.947 77.8097 224.741 79.9547C225.14 81.0329 225.425 81.9381 225.614 82.5849C225.708 82.9087 225.778 83.1689 225.827 83.3549C225.851 83.4479 225.869 83.5225 225.883 83.5772L225.899 83.6445L225.904 83.6667L225.906 83.6749L225.907 83.6783C225.907 83.6783 225.908 83.6812 222.489 84.4792L225.908 83.6812C226.347 85.5745 225.173 87.4668 223.285 87.9075C221.398 88.3478 219.513 87.1734 219.071 85.2839L219.071 85.2826L219.07 85.2811L219.069 85.2773L219.065 85.2601C219.062 85.2487 219.058 85.2335 219.054 85.2145C219.048 85.1915 219.041 85.163 219.032 85.1292C219 85.0058 218.948 84.8123 218.874 84.5586C218.726 84.0504 218.492 83.3057 218.158 82.4039C217.486 80.5889 216.433 78.1973 214.906 75.8328C211.836 71.0815 207.186 66.8794 200.108 66.8794C192.797 66.8794 187.144 71.2414 180.356 76.6711L179.994 76.9606C176.386 79.848 172.414 83.0263 167.822 85.2279C164.348 86.8928 160.52 87.9992 156.225 87.9992C151.91 87.9992 148.067 86.8828 144.582 85.2055C140.009 83.0047 136.052 79.8382 132.456 76.9606L132.094 76.6711C125.305 71.2414 119.653 66.8794 112.342 66.8794C105.031 66.8794 99.378 71.2414 92.5892 76.6711L92.2273 76.9606C88.6652 79.8113 84.7488 82.9454 80.2301 85.1434C76.7107 86.8552 72.8259 87.9992 68.4584 87.9992C64.0716 87.9992 60.1717 86.8451 56.64 85.1206C52.141 82.9238 48.2394 79.8015 44.6895 76.9607L44.3276 76.6711C37.5388 71.2414 31.8863 66.8794 24.5752 66.8794C17.5512 66.8794 13.2497 71.0188 10.5194 75.6971C9.15319 78.0381 8.25525 80.4109 7.69936 82.2172C7.42339 83.1139 7.23676 83.8544 7.12115 84.3593C7.06344 84.6114 7.02371 84.8035 6.99961 84.9256C6.98756 84.9866 6.97944 85.03 6.97494 85.0546L6.97148 85.0736Z" fill="url(#paint2_linear_80_8)"/>
</g>
<defs>
<linearGradient id="paint0_linear_80_8" x1="112.996" y1="88.004" x2="112.996" y2="-0.00918573" gradientUnits="userSpaceOnUse">
<stop stop-color="#FCFF43"/>
<stop offset="0.22" stop-color="#FC4243"/>
<stop offset="0.51" stop-color="#EB0090"/>
<stop offset="0.76" stop-color="#A000C8"/>
<stop offset="1" stop-color="#0071E9"/>
</linearGradient>
<linearGradient id="paint1_linear_80_8" x1="112.996" y1="88.004" x2="112.996" y2="-0.00918573" gradientUnits="userSpaceOnUse">
<stop stop-color="#FCFF43"/>
<stop offset="0.22" stop-color="#FC4243"/>
<stop offset="0.51" stop-color="#EB0090"/>
<stop offset="0.76" stop-color="#A000C8"/>
<stop offset="1" stop-color="#0071E9"/>
</linearGradient>
<linearGradient id="paint2_linear_80_8" x1="112.996" y1="88.004" x2="112.996" y2="-0.00918573" gradientUnits="userSpaceOnUse">
<stop stop-color="#FCFF43"/>
<stop offset="0.22" stop-color="#FC4243"/>
<stop offset="0.51" stop-color="#EB0090"/>
<stop offset="0.76" stop-color="#A000C8"/>
<stop offset="1" stop-color="#0071E9"/>
</linearGradient>
</defs>
</svg>
