<svg width="97" height="166" viewBox="0 0 97 166" fill="none" xmlns="http://www.w3.org/2000/svg">
<g opacity="0.1">
<path d="M-5.92024e-07 152.456L-2.41364e-06 110.782L48.5 124.326L97 110.782L97 152.456L48.5 166L-5.92024e-07 152.456Z" fill="#1562E5"/>
<path fill-rule="evenodd" clip-rule="evenodd" d="M48.5 69.1088L-4.82727e-06 55.5649L-3.00566e-06 97.2385L48.5 110.782L97 97.2385L97 55.5649L48.5 69.1088ZM95.6143 57.3938L48.5 70.5508L1.38571 57.3938L1.38571 96.1834L48.5 109.34L95.6143 96.1834L95.6143 57.3938Z" fill="#1562E5"/>
<path d="M4.85 43.028L9.00714 44.1889L9.00714 2.5153L4.84999 1.3544L4.85 43.028Z" fill="#1562E5"/>
<path d="M11.7786 44.9629L15.9357 46.1238L15.9357 4.45015L11.7786 3.28925L11.7786 44.9629Z" fill="#1562E5"/>
<path d="M18.7071 46.8977L22.8643 48.0586L22.8643 6.38499L18.7071 5.22409L18.7071 46.8977Z" fill="#1562E5"/>
<path d="M25.6357 48.8326L29.7929 49.9935L29.7929 8.31985L25.6357 7.15893L25.6357 48.8326Z" fill="#1562E5"/>
<path d="M32.5643 50.7674L36.7214 51.9283L36.7214 10.2547L32.5643 9.09379L32.5643 50.7674Z" fill="#1562E5"/>
<path d="M39.4929 52.7023L43.65 53.8632L43.65 12.1895L39.4929 11.0286L39.4929 52.7023Z" fill="#1562E5"/>
<path d="M48.5 55.2176L50.5786 54.6371L50.5786 12.9635L48.5 13.5439L46.4214 12.9635L46.4214 54.6371L48.5 55.2176Z" fill="#1562E5"/>
<path d="M53.35 53.8632L57.5071 52.7023L57.5071 11.0286L53.35 12.1895L53.35 53.8632Z" fill="#1562E5"/>
<path d="M60.2786 51.9283L64.4357 50.7674L64.4357 9.09379L60.2786 10.2547L60.2786 51.9283Z" fill="#1562E5"/>
<path d="M67.2071 49.9935L71.3643 48.8326L71.3643 7.15893L67.2071 8.31985L67.2071 49.9935Z" fill="#1562E5"/>
<path d="M74.1357 48.0586L78.2929 46.8977L78.2929 5.22409L74.1357 6.38499L74.1357 48.0586Z" fill="#1562E5"/>
<path d="M81.0643 46.1238L85.2214 44.9629L85.2214 3.28924L81.0643 4.45015L81.0643 46.1238Z" fill="#1562E5"/>
<path d="M87.9929 44.1889L92.15 43.028L92.15 1.3544L87.9929 2.5153L87.9929 44.1889Z" fill="#1562E5"/>
<path d="M97 -4.24e-06L94.9214 0.580455L94.9214 42.2541L97 41.6736L97 -4.24e-06Z" fill="#1562E5"/>
<path d="M2.07857 42.2541L2.07856 0.58046L-7.25609e-06 0L-5.43448e-06 41.6736L2.07857 42.2541Z" fill="#1562E5"/>
</g>
</svg>
