<svg width="172" height="18" viewBox="0 0 172 18" fill="none" xmlns="http://www.w3.org/2000/svg">
<path fill-rule="evenodd" clip-rule="evenodd" d="M0.442987 15.4177C-0.147662 16.0084 -0.147662 16.9662 0.442987 17.5569C1.03364 18.1477 1.99127 18.1477 2.58192 17.5569L17.5544 2.58229C18.1451 1.99155 18.1451 1.03378 17.5544 0.44305C16.9638 -0.147684 16.0062 -0.147683 15.4155 0.44305L0.442987 15.4177ZM17.5544 15.4177C16.9637 16.0084 16.9637 16.9662 17.5544 17.5569C18.145 18.1477 19.1027 18.1477 19.6933 17.5569L34.6658 2.58229C35.2565 1.99155 35.2565 1.03378 34.6658 0.44305C34.0752 -0.147684 33.1176 -0.147683 32.5269 0.44305L17.5544 15.4177ZM34.6658 17.5569C34.0751 16.9662 34.0751 16.0084 34.6658 15.4177L49.6383 0.44305C50.229 -0.147683 51.1866 -0.147684 51.7772 0.44305C52.3679 1.03378 52.3679 1.99155 51.7772 2.58229L36.8047 17.5569C36.2141 18.1477 35.2564 18.1477 34.6658 17.5569ZM51.7772 15.4177C51.1865 16.0084 51.1865 16.9662 51.7772 17.5569C52.3678 18.1477 53.3255 18.1477 53.9161 17.5569L68.8886 2.58229C69.4793 1.99155 69.4793 1.03378 68.8886 0.44305C68.298 -0.147684 67.3403 -0.147683 66.7497 0.44305L51.7772 15.4177ZM68.8886 17.5569C68.2979 16.9662 68.2979 16.0084 68.8886 15.4177L83.8611 0.44305C84.4517 -0.147683 85.4094 -0.147684 86 0.44305C86.5907 1.03378 86.5907 1.99155 86 2.58229L71.0275 17.5569C70.4369 18.1477 69.4792 18.1477 68.8886 17.5569ZM86 15.4177C85.4093 16.0084 85.4093 16.9662 86 17.5569C86.5906 18.1477 87.5483 18.1477 88.1389 17.5569L103.111 2.58229C103.702 1.99155 103.702 1.03378 103.111 0.44305C102.521 -0.147684 101.563 -0.147683 100.972 0.44305L86 15.4177ZM103.111 17.5569C102.521 16.9662 102.521 16.0084 103.111 15.4177L118.084 0.44305C118.675 -0.147683 119.632 -0.147684 120.223 0.44305C120.813 1.03378 120.813 1.99155 120.223 2.58229L105.25 17.5569C104.66 18.1477 103.702 18.1477 103.111 17.5569ZM120.223 15.4177C119.632 16.0084 119.632 16.9662 120.223 17.5569C120.813 18.1477 121.771 18.1477 122.362 17.5569L137.334 2.58229C137.925 1.99155 137.925 1.03378 137.334 0.44305C136.744 -0.147684 135.786 -0.147683 135.195 0.44305L120.223 15.4177ZM137.334 17.5569C136.744 16.9662 136.744 16.0084 137.334 15.4177L152.307 0.44305C152.897 -0.147683 153.855 -0.147684 154.446 0.44305C155.036 1.03378 155.036 1.99155 154.446 2.58229L139.473 17.5569C138.882 18.1477 137.925 18.1477 137.334 17.5569ZM154.446 15.4177C153.855 16.0084 153.855 16.9662 154.446 17.5569C155.036 18.1477 155.994 18.1477 156.584 17.5569L171.557 2.58229C172.148 1.99155 172.148 1.03378 171.557 0.44305C170.966 -0.147684 170.009 -0.147683 169.418 0.44305L154.446 15.4177Z" fill="url(#paint0_linear_80_10)"/>
<defs>
<linearGradient id="paint0_linear_80_10" x1="188.25" y1="7.49991" x2="-4.0156" y2="6.49983" gradientUnits="userSpaceOnUse">
<stop stop-color="#0071E9" stop-opacity="0"/>
<stop offset="1" stop-color="#0071E9"/>
</linearGradient>
</defs>
</svg>
